<mxfile host="app.diagrams.net" modified="2024-06-28T03:16:22.145Z" agent="Mozilla/5.0 (Windows NT 10.0; Win64; x64) AppleWebKit/537.36 (KHTML, like Gecko) Chrome/126.0.0.0 Safari/537.36 Edg/126.0.0.0" etag="gUa5J78rXrVEIzZKNMyg" version="24.6.1" type="github">
  <diagram name="Страница — 1" id="28HhkEcXKWORNenXBoMX">
    <mxGraphModel dx="1642" dy="619" grid="0" gridSize="10" guides="1" tooltips="1" connect="1" arrows="1" fold="1" page="0" pageScale="1" pageWidth="827" pageHeight="1169" math="0" shadow="0">
      <root>
        <mxCell id="0" />
        <mxCell id="1" parent="0" />
        <mxCell id="nfAJJ1NnSS2ZU5EpONMw-1" value="" style="whiteSpace=wrap;html=1;aspect=fixed;" vertex="1" parent="1">
          <mxGeometry x="-231" y="5" width="292" height="292" as="geometry" />
        </mxCell>
        <mxCell id="nfAJJ1NnSS2ZU5EpONMw-4" value="" style="whiteSpace=wrap;html=1;aspect=fixed;" vertex="1" parent="1">
          <mxGeometry x="450" width="296" height="296" as="geometry" />
        </mxCell>
        <mxCell id="nfAJJ1NnSS2ZU5EpONMw-5" value="" style="whiteSpace=wrap;html=1;aspect=fixed;" vertex="1" parent="1">
          <mxGeometry x="120" y="186" width="290" height="290" as="geometry" />
        </mxCell>
        <mxCell id="nfAJJ1NnSS2ZU5EpONMw-6" value="" style="rounded=0;whiteSpace=wrap;html=1;" vertex="1" parent="1">
          <mxGeometry x="-218" y="30" width="266" height="33" as="geometry" />
        </mxCell>
        <mxCell id="nfAJJ1NnSS2ZU5EpONMw-8" value="" style="rounded=0;whiteSpace=wrap;html=1;" vertex="1" parent="1">
          <mxGeometry x="466" y="22" width="266" height="33" as="geometry" />
        </mxCell>
        <mxCell id="nfAJJ1NnSS2ZU5EpONMw-11" value="" style="rounded=0;whiteSpace=wrap;html=1;" vertex="1" parent="1">
          <mxGeometry x="132" y="204" width="266" height="33" as="geometry" />
        </mxCell>
        <mxCell id="nfAJJ1NnSS2ZU5EpONMw-12" value="" style="rounded=0;whiteSpace=wrap;html=1;" vertex="1" parent="1">
          <mxGeometry x="465" y="250" width="266" height="33" as="geometry" />
        </mxCell>
        <mxCell id="nfAJJ1NnSS2ZU5EpONMw-13" value="" style="rounded=0;whiteSpace=wrap;html=1;" vertex="1" parent="1">
          <mxGeometry x="132" y="425" width="266" height="33" as="geometry" />
        </mxCell>
        <mxCell id="nfAJJ1NnSS2ZU5EpONMw-14" value="" style="rounded=0;whiteSpace=wrap;html=1;" vertex="1" parent="1">
          <mxGeometry x="-218" y="246" width="266" height="33" as="geometry" />
        </mxCell>
      </root>
    </mxGraphModel>
  </diagram>
</mxfile>
